<svg width="500" height="500" viewBox="0 0 500 500" fill="none" xmlns="http://www.w3.org/2000/svg">
  <path d="M385.574 167.192H114.426C110.696 190.294 92.4063 208.584 69.3057 212.313V287.687C92.4072 291.416 110.697 309.706 114.426 332.807H385.574C389.304 309.705 407.594 291.415 430.694 287.687V212.313C407.594 208.584 389.304 190.294 385.574 167.192ZM250 307.722C218.172 307.722 192.278 281.829 192.278 250C192.278 218.171 218.173 192.278 250 192.278C281.827 192.278 307.722 218.171 307.722 250C307.722 281.829 281.828 307.722 250 307.722Z" fill="#69727d"/>
  <path d="M482.559 97.8877H17.4414C7.80859 97.8877 0 105.697 0 115.329V384.67C0 394.303 7.80957 402.111 17.4414 402.111H482.559C492.191 402.111 500 394.302 500 384.67V115.33C500 105.697 492.19 97.8877 482.559 97.8877ZM448.136 295.712C448.136 300.528 444.231 304.433 439.415 304.433C418.96 304.433 402.319 321.073 402.319 341.528C402.319 346.345 398.415 350.249 393.599 350.249H106.401C101.585 350.249 97.6807 346.345 97.6807 341.528C97.6807 321.073 81.0391 304.433 60.585 304.433C55.7686 304.433 51.8643 300.528 51.8643 295.712V204.289C51.8643 199.473 55.7686 195.568 60.585 195.568C81.04 195.568 97.6807 178.928 97.6807 158.473C97.6807 153.656 101.585 149.752 106.401 149.752H393.599C398.415 149.752 402.319 153.656 402.319 158.473C402.319 178.928 418.961 195.568 439.415 195.568C444.231 195.568 448.136 199.473 448.136 204.289V295.712Z" fill="#69727d"/>
  <path d="M258.023 226.455V273H248.182V235.795H247.909L237.25 242.477V233.75L248.773 226.455H258.023Z" fill="#69727d"/>
</svg>
