<svg width="500" height="500" viewBox="0 0 500 500" fill="none" xmlns="http://www.w3.org/2000/svg">
<path d="M249.522 187C225.072 187.501 201.798 197.256 184.69 214.173C167.581 231.091 158 253.824 158 277.5C158 301.176 167.581 323.909 184.69 340.827C201.798 357.744 225.072 367.499 249.522 368C274.312 367.995 298.085 358.458 315.615 341.487C333.144 324.516 342.994 301.5 343 277.5C342.994 253.5 333.144 230.484 315.615 213.513C298.085 196.542 274.312 187.005 249.522 187ZM249.522 330.03C242.443 330.033 235.433 328.686 228.892 326.065C222.351 323.445 216.407 319.604 211.4 314.76C206.393 309.916 202.42 304.164 199.709 297.834C196.997 291.503 195.6 284.718 195.597 277.865C195.595 271.011 196.986 264.225 199.693 257.892C202.399 251.56 206.367 245.805 211.371 240.958C216.374 236.11 222.315 232.264 228.854 229.639C235.392 227.014 242.401 225.661 249.48 225.658C263.776 225.653 277.489 231.146 287.601 240.929C297.714 250.712 303.398 263.983 303.404 277.824C303.41 291.665 297.736 304.94 287.631 314.731C277.526 324.521 263.818 330.025 249.522 330.03Z" fill="#009390"/>
<path d="M451.188 124.535H350.354L307.146 69H191.896L148.688 124.535H47.8125C31.9499 124.535 19 137.016 19 152.323V402.232C19 417.5 31.9499 430 47.8125 430H451.188C467.05 430 480 417.54 480 402.232V152.323C480 137.016 467.05 124.535 451.188 124.535ZM249.5 400.496C232.569 400.703 215.765 397.668 200.061 391.568C184.357 385.467 170.066 376.421 158.018 364.956C145.97 353.491 136.404 339.834 129.876 324.777C123.348 309.721 119.987 293.565 119.988 277.247C119.989 260.929 123.353 244.774 129.884 229.719C136.415 214.664 145.983 201.008 158.033 189.545C170.083 178.081 184.375 169.038 200.08 162.94C215.785 156.841 232.59 153.809 249.521 154.02C283.152 154.437 315.259 167.606 338.887 190.675C362.515 213.743 375.762 244.853 375.759 277.268C375.756 309.682 362.504 340.79 338.872 363.855C315.24 386.919 283.131 400.083 249.5 400.496ZM451.188 190.491H393.563V162.723H451.188V190.491Z" fill="#009390"/>
</svg>
