<svg width="500" height="500" viewBox="0 0 500 500" fill="none" xmlns="http://www.w3.org/2000/svg">
<g clip-path="url(#clip0_360_428)">
<path d="M435.822 432.413V27.028C435.822 12.1678 423.636 0 408.776 0H91.2063C76.3462 0 64.1783 12.1678 64.1783 27.028V54.0559V432.43V472.972C64.1783 487.85 76.3462 500 91.2063 500H408.776C418.671 500 427.325 494.545 432.028 486.486H118.234C103.374 486.486 91.2063 474.336 91.2063 459.476H408.776C423.654 459.458 435.822 447.308 435.822 432.413ZM156.504 361.608C151.678 366.434 143.846 366.434 139.021 361.608C134.213 356.801 134.213 348.951 139.038 344.126L216.084 267.063L233.566 284.545L156.504 361.608ZM344.073 362.692C339.231 367.535 331.399 367.5 326.556 362.692L195.542 231.661C194.965 231.084 194.668 230.367 194.213 229.72C175.245 238.741 148.059 232.255 127.832 212.028C103.724 187.902 98.8462 153.671 116.923 135.577C135 117.5 169.231 122.395 193.339 146.504C213.566 166.731 220.052 193.934 211.031 212.902C211.696 213.339 212.413 213.619 213.007 214.213L344.039 345.227C348.846 350.052 348.881 357.885 344.073 362.692ZM392.045 174.126L335.909 230.262C335.472 230.699 334.948 230.962 334.441 231.241C315.28 248.287 295.612 248.409 279.598 238.112C279.283 238.497 279.161 238.969 278.776 239.318L265.909 252.203L248.427 234.738L261.329 221.836C261.678 221.486 262.15 221.346 262.535 221.049C252.22 205.018 252.343 185.332 269.406 166.206C269.685 165.717 269.913 165.175 270.367 164.755L326.504 108.601C329.091 105.997 333.304 105.997 335.892 108.601C338.479 111.189 338.479 115.385 335.857 117.972L281.591 172.238L290.944 181.608L345.227 127.325C347.78 124.738 351.993 124.738 354.58 127.325C357.133 129.895 357.133 134.073 354.58 136.678L300.315 190.962L309.703 200.332L363.969 146.066C366.556 143.479 370.734 143.462 373.322 146.049C375.909 148.636 375.909 152.832 373.322 155.42L319.056 209.685L328.409 219.038L382.675 164.755C385.262 162.168 389.476 162.168 392.028 164.755C394.633 167.325 394.633 171.538 392.045 174.126Z" fill="#009390"/>
</g>
<defs>
<clipPath id="clip0_360_428">
<rect width="500" height="500" fill="white"/>
</clipPath>
</defs>
</svg>
