<svg width="700" height="700" viewBox="0 0 700 700" fill="none" xmlns="http://www.w3.org/2000/svg">
<path d="M477.251 659.055V640.383V171.348V77.5915V58.8403H415.746L222.749 0V640.384V659.057H192.285V700H507.715V659.055H477.251ZM330.86 122.983H369.141V161.259H330.86V122.983ZM330.86 200.574H369.141V238.85H330.86V200.574ZM330.86 278.166H369.141V316.442H330.86V278.166ZM330.86 355.757H369.141V394.034H330.86V355.757ZM330.86 510.935H369.141V549.217H330.86V510.935ZM291.55 549.217H253.269V510.935H291.55V549.217ZM291.55 471.625H253.269V433.347H291.55V471.625ZM291.55 394.034H253.269V355.757H291.55V394.034ZM291.55 316.442H253.269V278.166H291.55V316.442ZM291.55 161.259H253.269V122.983H291.55V161.259ZM382.581 659.055H317.418V607.665H382.581V659.055ZM446.731 471.625H408.45V433.347H446.731V471.625ZM446.731 394.034H408.45V355.757H446.731V394.034ZM446.731 238.85H408.45V200.574H446.731V238.85ZM446.731 161.259H408.45V122.983H446.731V161.259Z" fill="#69727d"/>
</svg>
