<svg width="500" height="500" viewBox="0 0 500 500" fill="none" xmlns="http://www.w3.org/2000/svg">
<path d="M458.333 363.04H455.858C462.125 363.04 467.2 357.951 467.2 351.675V81.3645C467.2 75.0809 462.125 70 455.858 70H44.375C38.1083 70 33.025 75.0809 33.025 81.3645V351.684C33.025 357.959 38.1083 363.048 44.375 363.048H41.6667L0 402.746C0 416.369 11.2333 430 24.975 430H475.033C487.992 430 500 416.402 500 402.738L458.333 363.04ZM250.117 76.3409C250.986 76.3097 251.853 76.4508 252.665 76.7558C253.478 77.0608 254.219 77.5234 254.846 78.1159C255.472 78.7085 255.97 79.4189 256.311 80.2048C256.652 80.9906 256.827 81.8358 256.828 82.6898C256.829 83.5439 256.654 84.3893 256.314 85.1756C255.975 85.9619 255.477 86.6729 254.852 87.2663C254.226 87.8596 253.485 88.3231 252.673 88.6291C251.861 88.9351 250.994 89.0773 250.125 89.0473C248.449 88.9893 246.861 88.2951 245.696 87.1108C244.531 85.9266 243.879 84.3446 243.878 82.698C243.877 81.0515 244.527 79.4687 245.69 78.283C246.854 77.0972 248.441 76.401 250.117 76.3409ZM45.0417 371.222H454.95L479.433 394.556H296.183L292.867 390.236H207.367L204.042 394.556H20.55L45.0417 371.222ZM285.967 420.493H214.017C211.55 420.493 204.983 420.493 204.983 412.245H295.008C295.008 420.493 288.308 420.493 285.967 420.493Z" fill="#009390"/>
</svg>
