<svg width="37" height="37" viewBox="0 0 37 37" fill="none" xmlns="http://www.w3.org/2000/svg">
<path d="M18.5002 3.14502C10.021 3.14502 3.0835 10.0671 3.0835 18.5926C3.0835 26.3009 8.726 32.6988 16.0952 33.855V23.0634H12.1793V18.5926H16.0952V15.1854C16.0952 11.3159 18.3922 9.18835 21.9227 9.18835C23.6031 9.18835 25.3606 9.48127 25.3606 9.48127V13.2892H23.4181C21.5064 13.2892 20.9052 14.4763 20.9052 15.6942V18.5926H25.191L24.4972 23.0634H20.9052V33.855C24.5379 33.2812 27.8461 31.4277 30.2321 28.6288C32.6181 25.8301 33.9252 22.2704 33.9168 18.5926C33.9168 10.0671 26.9793 3.14502 18.5002 3.14502Z" fill="#D4B800"/>
</svg>
