<svg width="37" height="37" viewBox="0 0 37 37" fill="none" xmlns="http://www.w3.org/2000/svg">
<path fill-rule="evenodd" clip-rule="evenodd" d="M18.5 27.75C23.6086 27.75 27.75 23.6086 27.75 18.5C27.75 13.3914 23.6086 9.25 18.5 9.25C13.3914 9.25 9.25 13.3914 9.25 18.5C9.25 23.6086 13.3914 27.75 18.5 27.75ZM18.5 24.6667C21.9057 24.6667 24.6667 21.9057 24.6667 18.5C24.6667 15.0942 21.9057 12.3333 18.5 12.3333C15.0942 12.3333 12.3333 15.0942 12.3333 18.5C12.3333 21.9057 15.0942 24.6667 18.5 24.6667Z" fill="#D4B800"/>
<path d="M27.7502 7.70825C26.8987 7.70825 26.2085 8.39849 26.2085 9.24992C26.2085 10.1014 26.8987 10.7916 27.7502 10.7916C28.6016 10.7916 29.2918 10.1014 29.2918 9.24992C29.2918 8.39849 28.6016 7.70825 27.7502 7.70825Z" fill="#D4B800"/>
<path fill-rule="evenodd" clip-rule="evenodd" d="M2.54969 6.59234C1.5415 8.57102 1.5415 11.1613 1.5415 16.3417V20.6584C1.5415 25.8389 1.5415 28.4292 2.54969 30.4078C3.43652 32.1483 4.85159 33.5634 6.5921 34.4502C8.57078 35.4584 11.161 35.4584 16.3415 35.4584H20.6582C25.8386 35.4584 28.4289 35.4584 30.4075 34.4502C32.1481 33.5634 33.5632 32.1483 34.4499 30.4078C35.4582 28.4292 35.4582 25.8389 35.4582 20.6584V16.3417C35.4582 11.1613 35.4582 8.57102 34.4499 6.59234C33.5632 4.85183 32.1481 3.43676 30.4075 2.54994C28.4289 1.54175 25.8386 1.54175 20.6582 1.54175H16.3415C11.161 1.54175 8.57078 1.54175 6.5921 2.54994C4.85159 3.43676 3.43652 4.85183 2.54969 6.59234ZM20.6582 4.62508H16.3415C13.7004 4.62508 11.905 4.62749 10.5172 4.74086C9.16542 4.85131 8.47413 5.05149 7.9919 5.2972C6.83156 5.88843 5.88819 6.83181 5.29696 7.99214C5.05125 8.47438 4.85106 9.16566 4.74062 10.5175C4.62724 11.9052 4.62484 13.7006 4.62484 16.3417V20.6584C4.62484 23.2996 4.62724 25.0949 4.74062 26.4827C4.85106 27.8346 5.05125 28.5258 5.29696 29.0081C5.88819 30.1683 6.83156 31.1117 7.9919 31.7029C8.47413 31.9487 9.16542 32.1489 10.5172 32.2593C11.905 32.3726 13.7004 32.3751 16.3415 32.3751H20.6582C23.2994 32.3751 25.0946 32.3726 26.4824 32.2593C27.8343 32.1489 28.5256 31.9487 29.0078 31.7029C30.1681 31.1117 31.1114 30.1683 31.7027 29.0081C31.9484 28.5258 32.1487 27.8346 32.2591 26.4827C32.3724 25.0949 32.3748 23.2996 32.3748 20.6584V16.3417C32.3748 13.7006 32.3724 11.9052 32.2591 10.5175C32.1487 9.16566 31.9484 8.47438 31.7027 7.99214C31.1114 6.83181 30.1681 5.88843 29.0078 5.2972C28.5256 5.05149 27.8343 4.85131 26.4824 4.74086C25.0946 4.62749 23.2994 4.62508 20.6582 4.62508Z" fill="#D4B800"/>
</svg>
