<svg width="35" height="37" viewBox="0 0 35 37" fill="none" xmlns="http://www.w3.org/2000/svg">
<path d="M17.2583 1.1898C19.1511 1.16089 21.03 1.17592 22.9077 1.16089C22.9702 3.50923 23.9229 5.62286 25.4387 7.18842L25.4364 7.18611C27.0679 8.6557 29.1908 9.60845 31.531 9.77033L31.5634 9.77264V15.5955C29.3527 15.54 27.2737 15.0301 25.3994 14.1537L25.4942 14.193C24.5877 13.7571 23.8212 13.3096 23.0927 12.8101L23.1528 12.8494C23.139 17.0686 23.1667 21.2877 23.1239 25.4919C23.0048 27.6344 22.2926 29.5885 21.1502 31.2199L21.1733 31.1841C19.2632 33.9198 16.1691 35.7154 12.6506 35.8218H12.6344C12.4922 35.8287 12.3246 35.8322 12.1557 35.8322C10.1554 35.8322 8.28578 35.2749 6.69247 34.3071L6.73872 34.3337C3.83884 32.5889 1.83853 29.6035 1.46853 26.1313L1.4639 26.0839C1.435 25.3612 1.42112 24.6385 1.45003 23.9309C2.01659 18.4052 6.64622 14.1305 12.2737 14.1305C12.9062 14.1305 13.5259 14.1849 14.1283 14.2878L14.0636 14.2785C14.0925 16.4165 14.0057 18.5555 14.0057 20.6934C13.5167 20.5165 12.9524 20.4136 12.3639 20.4136C10.204 20.4136 8.36672 21.7942 7.68684 23.7216L7.67644 23.7563C7.52265 24.25 7.43362 24.8178 7.43362 25.4051C7.43362 25.6433 7.44865 25.8792 7.4764 26.1105L7.47409 26.0827C7.85797 28.4484 9.88603 30.2336 12.3315 30.2336C12.402 30.2336 12.4714 30.2325 12.5408 30.229H12.5304C14.222 30.1781 15.6904 29.2682 16.5206 27.9235L16.5322 27.9026C16.8409 27.4725 17.0525 26.9522 17.123 26.3868L17.1242 26.3706C17.2687 23.7841 17.2109 21.2126 17.2247 18.626C17.2386 12.8032 17.2109 6.99417 17.2537 1.18633L17.2583 1.1898Z" fill="#D4B800"/>
</svg>
