<svg width="37" height="37" viewBox="0 0 37 37" fill="none" xmlns="http://www.w3.org/2000/svg">
<path fill-rule="evenodd" clip-rule="evenodd" d="M4.30236 18.5C4.30236 10.2289 10.8515 3.5238 18.9302 3.5238C27.009 3.5238 33.5581 10.2289 33.5581 18.5C33.5581 26.771 27.009 33.4761 18.9302 33.4761C16.0525 33.4761 13.3738 32.6272 11.1137 31.1612C10.6931 30.8884 10.1777 30.8155 9.70061 30.9612L4.74579 32.4752L6.61135 28.0059C6.83185 27.4777 6.78699 26.8727 6.49113 26.3846C5.10377 24.0958 4.30236 21.3963 4.30236 18.5ZM18.9302 0C8.95061 0 0.860502 8.28271 0.860502 18.5C0.860502 21.7385 1.67474 24.787 3.10568 27.4376L0.138486 34.5456C-0.123822 35.1741 -0.00755242 35.901 0.436809 36.4109C0.88117 36.921 1.57348 37.1218 2.2131 36.9263L9.95629 34.5606C12.6014 36.1128 15.6668 36.9999 18.9302 36.9999C28.9099 36.9999 37 28.7172 37 18.5C37 8.28271 28.9099 0 18.9302 0ZM22.8755 22.3451L20.6138 23.9761C19.5546 23.3584 18.3835 22.4961 17.2088 21.2935C15.9876 20.0432 15.0823 18.7524 14.4147 17.5684L15.852 16.3194C16.4688 15.7835 16.6376 14.8798 16.2576 14.1486L14.4263 10.6248C14.1797 10.1503 13.735 9.81696 13.2187 9.7196C12.7024 9.62225 12.171 9.7715 11.7754 10.1249L11.2324 10.6101C9.92672 11.7768 9.15449 13.694 9.79452 15.6353C10.4581 17.6477 11.8741 20.8151 14.7751 23.7851C17.8961 26.9805 21.0664 28.2389 22.9204 28.7276C24.4142 29.1212 25.8277 28.5935 26.8238 27.7626L27.8417 26.9134C28.2771 26.5503 28.512 25.9923 28.4711 25.4188C28.4299 24.8453 28.1181 24.3283 27.6356 24.0339L24.7473 22.272C24.1639 21.9163 23.4308 21.9448 22.8755 22.3451Z" fill="white"/>
</svg>
