<svg width="37" height="37" viewBox="0 0 37 37" fill="none" xmlns="http://www.w3.org/2000/svg">
<g clip-path="url(#clip0_227_315)">
<path fill-rule="evenodd" clip-rule="evenodd" d="M14.7786 23.2844V12.9025C18.4642 14.6367 21.3186 16.3121 24.6946 18.1183C21.9102 19.6625 18.4642 21.3951 14.7786 23.2844ZM35.3184 7.73912C34.6826 6.90152 33.5991 6.24951 32.4455 6.03366C29.0547 5.38976 7.90132 5.38793 4.51243 6.03366C3.58735 6.20707 2.7636 6.62625 2.05597 7.27753C-0.925671 10.0449 0.00863243 24.8857 0.727322 27.2897C1.02954 28.3302 1.42023 29.0807 1.91225 29.5733C2.54617 30.2245 3.41411 30.673 4.41106 30.8741C7.20289 31.4515 21.5859 31.7744 32.3865 30.9608C33.3816 30.7874 34.2624 30.3245 34.9571 29.6455C37.714 26.8892 37.526 11.215 35.3184 7.73912Z" fill="white"/>
</g>
<defs>
<clipPath id="clip0_227_315">
<rect width="37" height="37" fill="white"/>
</clipPath>
</defs>
</svg>
